<svg width="99" height="197" viewBox="0 0 99 197" fill="none" xmlns="http://www.w3.org/2000/svg">
<path opacity="0.1" d="M99 -8.65485e-06C85.9991 -7.67253e-06 73.1255 2.54777 61.1143 7.49786C49.1031 12.448 38.1894 19.7034 28.9964 28.85C19.8034 37.9966 12.5111 48.8551 7.53592 60.8057C2.56071 72.7563 5.51724e-06 85.5648 8.61115e-06 98.5C1.17051e-05 111.435 2.56072 124.244 7.53594 136.194C12.5112 148.145 19.8034 159.003 28.9964 168.15C38.1894 177.297 49.1031 184.552 61.1144 189.502C73.1256 194.452 85.9991 197 99 197L99 98.5L99 -8.65485e-06Z" fill="#C91430"/>
</svg>
