<svg width="40" height="40" viewBox="0 0 40 40" fill="none" xmlns="http://www.w3.org/2000/svg">
<path d="M20.454 10.623C16.5754 10.623 12.7427 13.1929 12.7427 17.3521C12.7427 19.9971 14.2396 21.4999 15.1468 21.4999C15.5212 21.4999 15.7365 20.463 15.7365 20.1702C15.7365 19.821 14.8408 19.0768 14.8408 17.6226C14.8408 14.6019 17.1542 12.4601 20.148 12.4601C22.722 12.4601 24.6272 13.9142 24.6272 16.5857C24.6272 18.5808 23.8222 22.3229 21.2137 22.3229C20.2726 22.3229 19.467 21.6466 19.467 20.6776C19.467 19.2571 20.4649 17.8823 20.4649 16.4168C20.4649 13.9299 16.9153 14.3807 16.9153 17.3864C16.9153 18.0176 16.9945 18.7161 17.2781 19.2914C16.7562 21.5234 15.6905 24.8482 15.6905 27.1476C15.6905 27.8575 15.7927 28.5566 15.8605 29.2666C15.9887 29.4096 15.9246 29.3946 16.1211 29.3231C18.0263 26.7304 17.9586 26.2236 18.8204 22.8308C19.2855 23.7103 20.4873 24.1834 21.4398 24.1834C25.454 24.1834 27.2575 20.2947 27.2575 16.7895C27.2575 13.0588 24.0139 10.6242 20.4534 10.6242L20.454 10.623Z" fill="white"/>
</svg>
