<svg width="110" height="72" viewBox="0 0 110 72" fill="none" xmlns="http://www.w3.org/2000/svg">
<path d="M8.09427 40.1956C16.1885 40.1956 24.2999 40.1956 32.3942 40.1956C36.9291 38.3328 39.8895 34.009 39.8724 29.3435C39.8553 23.3107 34.8755 19.9269 34.4648 19.6705C35.2862 19.2604 36.2788 18.6281 37.2371 17.671C39.8724 14.9879 40.2147 11.6212 40.2831 10.4591L48.6683 40.1956H56.7626L63.1285 14.4068L69.0837 40.1956H77.8796L86.2648 6.73345H105.311L110 0H79.9502L73.4474 25.7546L67.9714 0H58.8332L52.7411 25.7546L46.2383 0H0L4.89421 6.69927H7.87181M15.0078 7.07524H28.8519C31.299 7.60503 33.0103 9.82673 32.9418 12.2535C32.8563 14.5777 31.1792 16.5944 28.8519 17.09C24.2315 17.09 19.6282 17.09 15.0078 17.09V7.07524ZM28.869 35.154C24.2486 35.154 19.6453 35.154 15.0249 35.154V23.2594H28.869C31.3161 23.8918 33.9343 26.3014 33.8488 29.2067C33.7632 31.9582 31.1792 34.5559 28.869 35.154Z" fill="#C91430"/>
<path d="M82.7397 33.4619L81.1311 40.1954H102.18L106.903 33.4619H82.7397Z" fill="white"/>
<path d="M86.6071 17.7905L85.0156 24.2164H96.8747L101.581 17.7905H86.6071Z" fill="white"/>
<path d="M12.9199 60.2764H11.4824V58.0547C10.5412 56.6362 9.92519 55.4741 9.63428 54.5854H11.106C11.3798 55.3545 11.7391 56.1235 12.2183 56.8755C12.6803 56.1235 13.0568 55.3545 13.3306 54.5854H14.8023C14.4943 55.5083 13.8782 56.6704 12.937 58.0547L12.9199 60.2764Z" fill="#C91430"/>
<path d="M20.073 58.1743C20.073 58.8408 19.8848 59.3706 19.5083 59.7637C19.1318 60.1568 18.6184 60.3618 17.9682 60.3618C17.3179 60.3618 16.8045 60.1568 16.428 59.7637C16.0515 59.3706 15.8462 58.8408 15.8462 58.1743C15.8462 57.5078 16.0344 56.978 16.428 56.585C16.8045 56.1919 17.3179 55.9868 17.9682 55.9868C18.6184 55.9868 19.1318 56.1919 19.5083 56.585C19.8848 56.978 20.073 57.5078 20.073 58.1743ZM17.4377 57.4053C17.3179 57.5933 17.2494 57.8496 17.2494 58.1743C17.2494 58.499 17.3179 58.7554 17.4377 58.9434C17.5575 59.1314 17.7286 59.2168 17.951 59.2168C18.1735 59.2168 18.3446 59.1314 18.4644 58.9434C18.5842 58.7554 18.6527 58.499 18.6527 58.1743C18.6527 57.8496 18.5842 57.5933 18.4644 57.4053C18.3446 57.2173 18.1735 57.1318 17.951 57.1318C17.7457 57.1318 17.5746 57.2173 17.4377 57.4053Z" fill="#C91430"/>
<path d="M25.4121 60.0371C24.779 60.2593 24.1458 60.3618 23.5126 60.3618C22.7939 60.3618 22.2805 60.208 21.9896 59.8833C21.6987 59.5586 21.5447 59.0972 21.5447 58.482V56.0723H22.9308V58.482C22.9308 58.9776 23.1362 59.2168 23.564 59.2168C23.7351 59.2168 23.8891 59.1826 24.0431 59.1314V56.0723H25.4292V60.0371H25.4121Z" fill="#C91430"/>
<path d="M27.1233 56.3286C27.6024 56.1064 28.1672 56.0039 28.8346 56.0039C29.211 56.0039 29.5019 56.0381 29.6902 56.1064L29.5019 57.2344C29.3479 57.1831 29.1768 57.1489 28.9543 57.1489C28.7832 57.1489 28.6292 57.166 28.5094 57.2173V60.2935H27.1233V56.3286Z" fill="#C91430"/>
<path d="M37.083 60.2764V58.0034H35.2177V60.2764H33.7803V54.5854H35.2177V56.7901H37.083V54.5854H38.5205V60.2764H37.083Z" fill="#C91430"/>
<path d="M43.774 60.0884C43.3633 60.2764 42.8841 60.3618 42.3194 60.3618C41.652 60.3618 41.1044 60.1568 40.6937 59.7637C40.283 59.3706 40.0776 58.8237 40.0776 58.1743C40.0776 57.5249 40.2659 56.9951 40.6595 56.585C41.0531 56.1919 41.5493 55.9868 42.1654 55.9868C42.6959 55.9868 43.1237 56.1577 43.4659 56.4995C43.8082 56.8413 43.9793 57.3027 43.9793 57.8667C43.9793 58.106 43.9622 58.3281 43.9451 58.5332H41.5493C41.652 58.9776 41.9771 59.1997 42.4905 59.1997C42.8328 59.1997 43.1921 59.1314 43.5686 58.9776L43.774 60.0884ZM42.1654 57.0806C41.806 57.0806 41.5835 57.3027 41.5151 57.73H42.6616V57.6616C42.6616 57.4736 42.6103 57.3369 42.5247 57.2344C42.4221 57.1318 42.3023 57.0806 42.1654 57.0806Z" fill="#C91430"/>
<path d="M48.8222 60.0201C48.3259 60.2422 47.7098 60.3618 46.9569 60.3618C46.3922 60.3618 45.9644 60.2422 45.6734 60.003C45.3825 59.7637 45.2285 59.439 45.2285 59.0459C45.2285 58.6699 45.3825 58.3452 45.6734 58.106C45.9644 57.8667 46.3751 57.7471 46.8713 57.7471C47.0938 57.7471 47.2991 57.7642 47.4703 57.7813V57.7129C47.4703 57.3027 47.2307 57.0977 46.7687 57.0977C46.3751 57.0977 46.0157 57.166 45.6906 57.2857L45.451 56.209C45.8788 56.0381 46.3751 55.9526 46.9227 55.9526C47.5387 55.9526 48.0179 56.1064 48.3259 56.4312C48.651 56.7559 48.8051 57.2002 48.8051 57.7813L48.8222 60.0201ZM47.1109 59.3877C47.2649 59.3877 47.3847 59.3706 47.4874 59.3365V58.6529C47.3334 58.6187 47.2136 58.6016 47.0767 58.6016C46.9398 58.6016 46.82 58.6358 46.7344 58.7041C46.6489 58.7725 46.5975 58.875 46.5975 58.9947C46.5975 59.2681 46.7687 59.3877 47.1109 59.3877Z" fill="#C91430"/>
<path d="M51.8341 54.3633V58.6016C51.8341 59.0117 51.971 59.2339 52.2277 59.2339C52.2961 59.2339 52.3817 59.2339 52.4673 59.2168L52.5699 60.3106C52.3475 60.3619 52.125 60.3789 51.9025 60.3789C50.9442 60.3789 50.4651 59.7979 50.4651 58.6358V54.4658L51.8341 54.3633Z" fill="#C91430"/>
<path d="M56.4201 60.3106C56.1977 60.3619 55.941 60.3789 55.65 60.3789C54.5891 60.3789 54.0586 59.7979 54.0586 58.6358V57.2002H53.5281V56.1065H54.0586V55.2349L55.4447 55.1665V56.1065H56.249V57.2002H55.4447V58.6187C55.4447 59.0288 55.6158 59.251 55.941 59.251C56.095 59.251 56.2319 59.2339 56.3346 59.2168L56.4201 60.3106Z" fill="#C91430"/>
<path d="M59.1925 60.2764H57.8064V54.4487L59.1925 54.3804V56.0894C59.3636 56.021 59.5861 55.9868 59.8599 55.9868C60.4075 55.9868 60.8524 56.1406 61.1776 56.4483C61.5027 56.7559 61.6739 57.1831 61.6739 57.7471V60.2764H60.2877V57.8667C60.2877 57.3882 60.0653 57.1489 59.6203 57.1489C59.4663 57.1489 59.3123 57.1831 59.1754 57.2344L59.1925 60.2764Z" fill="#C91430"/>
<path d="M65.969 59.7979C65.2845 60.9942 64.446 61.6607 63.4363 61.7803L63.231 60.6182C63.4534 60.6011 63.693 60.5157 63.9497 60.396C64.2064 60.2593 64.3775 60.1226 64.4802 59.9517C64.0181 59.3535 63.6759 58.7554 63.4363 58.1572C63.2139 57.5591 63.0769 56.8755 63.0427 56.0894H64.446C64.446 57.1489 64.7027 58.106 65.1989 58.9263C65.37 58.5332 65.4898 58.1231 65.5583 57.7129C65.6267 57.3027 65.661 56.773 65.661 56.0894H67.0471C66.9615 57.4224 66.6193 58.6528 65.969 59.7979Z" fill="#C91430"/>
<path d="M73.687 60.3619C72.8313 60.3619 72.1468 60.1055 71.6848 59.5757C71.2056 59.0459 70.9661 58.3452 70.9661 57.4395C70.9661 56.5337 71.2056 55.8159 71.7019 55.269C72.1811 54.7393 72.8827 54.4658 73.7725 54.4658C74.2175 54.4658 74.6795 54.5684 75.1415 54.7563L74.8164 55.9697C74.3715 55.7988 74.0292 55.7305 73.7896 55.7305C73.3276 55.7305 72.9854 55.8672 72.78 56.1577C72.5575 56.4312 72.4549 56.8584 72.4549 57.4224C72.4549 57.9864 72.5575 58.3965 72.7629 58.6699C72.9682 58.9434 73.2934 59.0801 73.7554 59.0801C74.1319 59.0801 74.5255 58.9776 74.9191 58.7554L75.1929 59.9859C74.748 60.2422 74.2517 60.3619 73.687 60.3619Z" fill="#C91430"/>
<path d="M78.0336 60.2764H76.6475V54.4487L78.0336 54.3804V56.0894C78.2047 56.021 78.4272 55.9868 78.701 55.9868C79.2486 55.9868 79.6935 56.1406 80.0187 56.4483C80.3438 56.7559 80.5149 57.1831 80.5149 57.7471V60.2764H79.1288V57.8667C79.1288 57.3882 78.9063 57.1489 78.4614 57.1489C78.3074 57.1489 78.1534 57.1831 78.0165 57.2344L78.0336 60.2764Z" fill="#C91430"/>
<path d="M86.2134 58.1743C86.2134 58.8408 86.0252 59.3706 85.6487 59.7637C85.2722 60.1568 84.7588 60.3618 84.1085 60.3618C83.4583 60.3618 82.9449 60.1568 82.5684 59.7637C82.1919 59.3706 81.9866 58.8408 81.9866 58.1743C81.9866 57.5078 82.1748 56.978 82.5684 56.585C82.9449 56.1919 83.4583 55.9868 84.1085 55.9868C84.7588 55.9868 85.2722 56.1919 85.6487 56.585C86.0252 56.978 86.2134 57.5078 86.2134 58.1743ZM83.5952 57.4053C83.4754 57.5933 83.4069 57.8496 83.4069 58.1743C83.4069 58.499 83.4754 58.7554 83.5952 58.9434C83.7149 59.1314 83.8861 59.2168 84.1085 59.2168C84.331 59.2168 84.5021 59.1314 84.6219 58.9434C84.7417 58.7554 84.8102 58.499 84.8102 58.1743C84.8102 57.8496 84.7417 57.5933 84.6219 57.4053C84.5021 57.2173 84.331 57.1318 84.1085 57.1318C83.8861 57.1318 83.7149 57.2173 83.5952 57.4053Z" fill="#C91430"/>
<path d="M88.9854 55.4912C88.8485 55.6279 88.6603 55.6963 88.4207 55.6963C88.1812 55.6963 87.9929 55.6279 87.8389 55.4912C87.702 55.3545 87.6335 55.1665 87.6335 54.9443C87.6335 54.7222 87.702 54.5342 87.8389 54.3975C87.9758 54.2607 88.164 54.1924 88.4207 54.1924C88.6603 54.1924 88.8485 54.2607 88.9854 54.3975C89.1223 54.5342 89.1908 54.7051 89.1908 54.9443C89.1908 55.1665 89.1223 55.3545 88.9854 55.4912ZM89.1052 56.0894V60.2764H87.7191V56.0894H89.1052Z" fill="#C91430"/>
<path d="M92.716 55.9868C93.1952 55.9868 93.6059 56.0723 93.9652 56.2432L93.7085 57.3198C93.4005 57.1831 93.1096 57.1318 92.8358 57.1318C92.5791 57.1318 92.3738 57.2173 92.2197 57.4053C92.0657 57.5762 91.9973 57.8325 91.9973 58.1572C91.9973 58.875 92.2882 59.251 92.87 59.251C93.1438 59.251 93.4347 59.1826 93.7257 59.063L93.931 60.1739C93.623 60.3277 93.2123 60.396 92.7331 60.396C92.0486 60.396 91.5181 60.1909 91.1416 59.7979C90.7652 59.4048 90.5598 58.875 90.5598 58.2085C90.5598 57.542 90.7481 57.0122 91.1245 56.6191C91.5523 56.1919 92.0657 55.9868 92.716 55.9868Z" fill="#C91430"/>
<path d="M98.928 60.0884C98.5173 60.2764 98.0382 60.3618 97.4734 60.3618C96.806 60.3618 96.2584 60.1568 95.8477 59.7637C95.437 59.3706 95.2317 58.8237 95.2317 58.1743C95.2317 57.5249 95.4199 56.9951 95.8135 56.585C96.2071 56.1919 96.7034 55.9868 97.3194 55.9868C97.8499 55.9868 98.2777 56.1577 98.62 56.4995C98.9622 56.8413 99.1334 57.3027 99.1334 57.8667C99.1334 58.106 99.1163 58.3281 99.0991 58.5332H96.7034C96.806 58.9776 97.1312 59.1997 97.6446 59.1997C97.9868 59.1997 98.3462 59.1314 98.7227 58.9776L98.928 60.0884ZM97.3194 57.0806C96.9601 57.0806 96.7376 57.3027 96.6692 57.73H97.8157V57.6616C97.8157 57.4736 97.7644 57.3369 97.6788 57.2344C97.5761 57.1318 97.4734 57.0806 97.3194 57.0806Z" fill="#C91430"/>
<path d="M19.9021 48.8772V48.8601C19.7823 48.4841 19.6968 48.1081 19.8166 47.7492C19.8166 47.7321 19.8166 47.7151 19.8166 47.698C19.6625 47.698 19.6797 47.7151 19.5085 47.7151C19.3545 47.7151 19.2005 47.7151 19.0465 47.6809C18.4304 47.6125 18.0368 47.1853 17.6604 46.758C16.9074 45.9206 15.9491 45.6301 14.8539 45.7326C12.6464 45.9377 10.4388 46.1428 8.23131 46.3479C8.14575 46.3479 8.04307 46.3479 7.99173 46.3991C7.88906 46.4846 7.76927 46.5871 7.75216 46.7067C7.73505 46.7751 7.90617 46.9118 8.00885 46.946C8.14575 46.9973 8.31687 46.9802 8.47089 46.9802C10.3704 46.9802 12.2528 46.9802 14.1523 46.9802C14.255 46.9802 14.3576 46.946 14.4432 46.9973C14.563 47.0656 14.6657 47.2024 14.7683 47.3049C14.6485 47.4074 14.563 47.5271 14.4261 47.5954C14.3576 47.6296 14.2378 47.5954 14.1352 47.5954C12.2014 47.5954 10.2506 47.5954 8.31687 47.5954C8.17997 47.5954 8.02596 47.5954 7.88906 47.6467C7.8035 47.6809 7.68371 47.8176 7.68371 47.903C7.68371 47.9885 7.78638 48.1252 7.88906 48.1594C8.04307 48.2107 8.2142 48.2278 8.38533 48.2278C10.2848 48.2278 12.2014 48.2278 14.1009 48.2278C14.2036 48.2278 14.3405 48.1936 14.4261 48.2448C14.563 48.3132 14.7341 48.4157 14.7512 48.5354C14.8026 48.7575 14.6143 48.843 14.409 48.843C14.3063 48.843 14.1865 48.843 14.0838 48.843C12.1501 48.843 10.2335 48.843 8.29976 48.843C8.04307 48.843 7.63237 48.7917 7.63237 49.1506C7.63237 49.5095 8.02596 49.4582 8.29976 49.4582C10.2506 49.4582 12.2014 49.4582 14.1523 49.4582C14.255 49.4582 14.3919 49.4241 14.4774 49.4753C14.5972 49.5437 14.7341 49.6633 14.7512 49.7829C14.7683 49.8684 14.6143 50.0051 14.4945 50.0564C14.3919 50.1077 14.255 50.0735 14.1352 50.0735C12.2357 50.0735 10.3533 50.0735 8.45378 50.0735C8.26554 50.0735 8.0773 50.0735 7.92328 50.1077C7.8035 50.1418 7.70082 50.2615 7.59814 50.3298C7.68371 50.4324 7.76927 50.552 7.87195 50.6033C7.97462 50.6545 8.12864 50.6545 8.26554 50.6716C8.64201 50.7058 9.00138 50.74 9.37786 50.7742C11.2774 50.9451 13.1597 51.1331 15.0593 51.2869C16.0689 51.3723 16.9245 51.0305 17.6261 50.2956C17.7802 50.1418 17.9342 49.988 18.0882 49.8342C18.4647 49.4582 18.9267 49.3044 19.4572 49.3044C19.5941 49.3044 19.7652 49.3215 19.9364 49.3215C19.9364 49.2873 19.9364 49.2532 19.9364 49.219C19.9021 49.1335 19.9021 48.9968 19.9021 48.8772Z" fill="white"/>
<path d="M101.837 47.6978H19.7139V49.3555H101.837V47.6978Z" fill="white"/>
<path d="M101.358 66.6851C100.964 66.1895 100.468 65.711 99.9204 65.3692C98.0209 64.19 95.9332 63.626 93.7085 63.5748C91.501 63.5235 89.687 64.2584 88.7287 66.4288C88.5405 66.8389 88.2154 66.9244 87.7875 66.9244C87.6849 66.9244 87.5651 66.9244 87.4624 66.9244C87.6506 67.2833 87.7704 67.6763 87.7875 68.1036C87.7875 68.2916 87.7704 68.4796 87.7362 68.6505C87.7533 68.6505 87.7704 68.6505 87.7875 68.6505C88.3865 68.6334 88.6432 68.941 88.8656 69.4024C89.6186 71.026 90.9705 71.795 92.6817 71.9488C95.3 72.1881 97.7129 71.5387 99.9546 70.1886C100.485 69.8809 100.947 69.4195 101.341 68.941C101.923 68.2232 101.94 67.3858 101.358 66.6851Z" fill="white"/>
<path d="M89.1224 66.9243H7.51221V68.6333H89.1224V66.9243Z" fill="white"/>
</svg>
