<svg width="24" height="24" viewBox="0 0 24 24" fill="none" xmlns="http://www.w3.org/2000/svg">
<path d="M20.5782 11.3441L4.74378 2.47535C4.6104 2.40167 4.45774 2.37036 4.30612 2.38559C4.15451 2.40083 4.01113 2.46188 3.89508 2.56063C3.77902 2.65938 3.6958 2.79113 3.65649 2.93835C3.61718 3.08557 3.62365 3.24127 3.67503 3.38473L6.65628 11.7472C6.72195 11.9096 6.72195 12.0911 6.65628 12.2535L3.67503 20.616C3.62365 20.7594 3.61718 20.9151 3.65649 21.0624C3.6958 21.2096 3.77902 21.3413 3.89508 21.4401C4.01113 21.5388 4.15451 21.5999 4.30612 21.6151C4.45774 21.6303 4.6104 21.599 4.74378 21.5254L20.5782 12.6566C20.6954 12.5917 20.7931 12.4967 20.8611 12.3813C20.9292 12.2659 20.9651 12.1343 20.9651 12.0004C20.9651 11.8664 20.9292 11.7349 20.8611 11.6194C20.7931 11.504 20.6954 11.409 20.5782 11.3441V11.3441Z" stroke="white" stroke-width="1.5" stroke-linecap="round" stroke-linejoin="round"/>
<path d="M6.75 12H12.75" stroke="white" stroke-width="1.5" stroke-linecap="round" stroke-linejoin="round"/>
</svg>
