<svg width="110" height="41" viewBox="0 0 110 41" fill="none" xmlns="http://www.w3.org/2000/svg">
<path d="M8.09427 40.1956C16.1885 40.1956 24.2999 40.1956 32.3942 40.1956C36.9291 38.3328 39.8895 34.009 39.8724 29.3435C39.8553 23.3107 34.8755 19.9269 34.4648 19.6705C35.2862 19.2604 36.2788 18.6281 37.2371 17.671C39.8724 14.9879 40.2147 11.6212 40.2831 10.4591L48.6683 40.1956H56.7626L63.1285 14.4068L69.0837 40.1956H77.8796L86.2648 6.73345H105.311L110 0H79.9502L73.4474 25.7546L67.9714 0H58.8332L52.7411 25.7546L46.2383 0H0L4.89421 6.69927H7.87181M15.0078 7.07524H28.8519C31.299 7.60503 33.0103 9.82673 32.9418 12.2535C32.8563 14.5777 31.1792 16.5944 28.8519 17.09C24.2315 17.09 19.6282 17.09 15.0078 17.09V7.07524ZM28.869 35.154C24.2486 35.154 19.6453 35.154 15.0249 35.154V23.2594H28.869C31.3161 23.8918 33.9343 26.3014 33.8488 29.2067C33.7632 31.9582 31.1792 34.5559 28.869 35.154Z" fill="#C91430"/>
</svg>
