<svg width="16" height="11" viewBox="0 0 16 11" fill="none" xmlns="http://www.w3.org/2000/svg">
<path d="M15.9834 1.00022C15.889 0.43275 15.396 0 14.8017 0H14.4899L9.37931 3.34834V3.12328e-05H6.62069V3.34838L1.51006 3.12328e-05H1.19828C0.604 3.12328e-05 0.111031 0.43275 0.0165938 1.00025L4.38466 3.86213H0V6.62075H4.38466L0.0165938 9.48256C0.111031 10.05 0.604 10.4828 1.19828 10.4828H1.51006L6.62069 7.13444V10.4828H9.37931V7.13444L14.4899 10.4828H14.8017C15.396 10.4828 15.889 10.0501 15.9834 9.48256L11.6153 6.62069H16V3.86206H11.6153L15.9834 1.00022Z" fill="white"/>
</svg>
